# xmcd
#
# Track frame offsets:
#	150
#	24277
#	44452
#	64592
#	81802
#	96820
#	110042
#	126260
#	144510
#
# Disc length: 2201 seconds
#
# Revision: 5
# Processed by: cddbd v1.5.2PL0 Copyright (c) Steve Scherf et al.
# Submitted via: EasyCDDAExtractor 12.0.7.1
#
DISCID=75089709
DTITLE=이소라 - 영화에서처럼
DYEAR=1996
DGENRE=Pop
TTITLE0=쉼
TTITLE1=너무 다른 널 보면서
TTITLE2=기억해줘
TTITLE3=청혼
TTITLE4=화
TTITLE5=사랑
TTITLE6=부랑자
TTITLE7=복잡해
TTITLE8=HAPPY CHRISTMAS
EXTD=YEAR: 1996
EXTT0=
EXTT1=
EXTT2=
EXTT3=
EXTT4=
EXTT5=
EXTT6=
EXTT7=
EXTT8=
PLAYORDER=
